<svg width="314" height="80" viewBox="0 0 314 80" fill="none" xmlns="http://www.w3.org/2000/svg">
<path fill-rule="evenodd" clip-rule="evenodd" d="M2 4C2 2.89543 2.89543 2 4 2H310C311.105 2 312 2.89543 312 4V56.5664C312 57.671 311.105 58.5664 310 58.5664H114.353C113.042 58.5664 112.086 59.8059 112.418 61.0737L116.313 75.9274C116.785 77.7278 114.758 79.1403 113.232 78.0738L85.848 58.9273C85.512 58.6924 85.1119 58.5664 84.7019 58.5664H4C2.89543 58.5664 2 57.671 2 56.5664V4Z" fill="#FFEA00"/>
<path d="M85.848 58.9273L86.7075 57.698L85.848 58.9273ZM116.313 75.9274L114.862 76.3079L116.313 75.9274ZM113.232 78.0738L114.092 76.8445L113.232 78.0738ZM112.418 61.0737L113.869 60.6932L112.418 61.0737ZM310 3.5H4V0.5H310V3.5ZM310.5 56.5664V4H313.5V56.5664H310.5ZM114.353 57.0664H310V60.0664H114.353V57.0664ZM114.862 76.3079L110.967 61.4542L113.869 60.6932L117.764 75.547L114.862 76.3079ZM86.7075 57.698L114.092 76.8445L112.373 79.3032L84.9884 60.1567L86.7075 57.698ZM4 57.0664H84.7019V60.0664H4V57.0664ZM3.5 4V56.5664H0.5V4H3.5ZM4 60.0664C2.067 60.0664 0.5 58.4994 0.5 56.5664H3.5C3.5 56.8426 3.72386 57.0664 4 57.0664V60.0664ZM84.9884 60.1567C84.9044 60.0979 84.8044 60.0664 84.7019 60.0664V57.0664C85.4194 57.0664 86.1195 57.2869 86.7075 57.698L84.9884 60.1567ZM117.764 75.547C118.59 78.6976 115.042 81.1695 112.373 79.3032L114.092 76.8445C114.473 77.1111 114.98 76.758 114.862 76.3079L117.764 75.547ZM114.353 60.0664C114.025 60.0664 113.786 60.3763 113.869 60.6932L110.967 61.4542C110.385 59.2356 112.059 57.0664 114.353 57.0664V60.0664ZM313.5 56.5664C313.5 58.4994 311.933 60.0664 310 60.0664V57.0664C310.276 57.0664 310.5 56.8426 310.5 56.5664H313.5ZM4 3.5C3.72386 3.5 3.5 3.72386 3.5 4H0.5C0.5 2.06701 2.067 0.5 4 0.5V3.5ZM310 0.5C311.933 0.5 313.5 2.06701 313.5 4H310.5C310.5 3.72386 310.276 3.5 310 3.5V0.5Z" fill="black"/>
<path d="M71.296 18.6296C71.2641 18.8856 71.232 19.1656 71.2 19.4696C71.168 19.7576 71.144 20.0536 71.128 20.3576C71.128 20.6936 71.12 21.1416 71.104 21.7016C71.088 22.2456 71.072 22.8456 71.056 23.5016C71.056 24.1416 71.056 24.7816 71.056 25.4216C71.056 26.0616 71.056 26.6376 71.056 27.1496C71.056 27.7736 71.072 28.4936 71.104 29.3096C71.152 30.1096 71.2 30.9336 71.2481 31.7816C71.312 32.6136 71.36 33.4056 71.392 34.1576C71.424 34.8936 71.44 35.5096 71.44 36.0056C71.44 36.7256 71.256 37.3656 70.888 37.9256C70.52 38.4696 69.976 38.9016 69.2561 39.2216C68.536 39.5576 67.648 39.7256 66.592 39.7256C64.624 39.7256 63.128 39.3576 62.104 38.6216C61.096 37.8856 60.592 36.8696 60.592 35.5736C60.592 34.7416 60.832 34.0056 61.312 33.3656C61.792 32.7256 62.48 32.2296 63.376 31.8776C64.288 31.5096 65.368 31.3256 66.616 31.3256C67.944 31.3256 69.184 31.4616 70.336 31.7336C71.488 32.0056 72.536 32.3656 73.4801 32.8136C74.4401 33.2456 75.2881 33.7096 76.0241 34.2056C76.7761 34.7016 77.4081 35.1656 77.9201 35.5976L76 38.5496C75.424 38.0056 74.7761 37.4616 74.056 36.9176C73.352 36.3736 72.584 35.8856 71.752 35.4536C70.92 35.0216 70.04 34.6776 69.112 34.4216C68.184 34.1656 67.208 34.0376 66.184 34.0376C65.416 34.0376 64.824 34.1736 64.408 34.4456C64.008 34.7016 63.808 35.0136 63.808 35.3816C63.808 35.6536 63.896 35.8936 64.072 36.1016C64.248 36.3096 64.504 36.4696 64.84 36.5816C65.192 36.6776 65.608 36.7256 66.088 36.7256C66.504 36.7256 66.864 36.6776 67.168 36.5816C67.472 36.4856 67.704 36.3176 67.864 36.0776C68.024 35.8216 68.104 35.4856 68.104 35.0696C68.104 34.7336 68.088 34.2536 68.056 33.6296C68.024 32.9896 67.992 32.2856 67.96 31.5176C67.928 30.7336 67.896 29.9576 67.864 29.1896C67.832 28.4216 67.816 27.7416 67.816 27.1496C67.816 26.5576 67.816 25.9336 67.816 25.2776C67.832 24.6216 67.84 23.9736 67.84 23.3336C67.84 22.6936 67.84 22.1096 67.84 21.5816C67.856 21.0536 67.864 20.6376 67.864 20.3336C67.864 20.1096 67.848 19.8296 67.816 19.4936C67.8 19.1576 67.76 18.8696 67.696 18.6296H71.296ZM61.12 20.7656C61.568 20.8296 62.056 20.8936 62.584 20.9576C63.112 21.0216 63.648 21.0856 64.192 21.1496C64.736 21.1976 65.248 21.2376 65.728 21.2696C66.208 21.2856 66.632 21.2936 67 21.2936C68.664 21.2936 70.304 21.2456 71.9201 21.1496C73.5521 21.0536 75.2641 20.8616 77.056 20.5736L77.0321 23.5976C76.248 23.7096 75.312 23.8136 74.224 23.9096C73.136 24.0056 71.9681 24.0856 70.72 24.1496C69.488 24.1976 68.256 24.2216 67.024 24.2216C66.528 24.2216 65.92 24.2056 65.2 24.1736C64.496 24.1256 63.784 24.0696 63.064 24.0056C62.344 23.9256 61.72 23.8536 61.192 23.7896L61.12 20.7656ZM60.976 25.9736C61.36 26.0376 61.816 26.1016 62.344 26.1656C62.872 26.2296 63.408 26.2776 63.952 26.3096C64.512 26.3416 65.032 26.3736 65.512 26.4056C66.008 26.4216 66.4 26.4296 66.688 26.4296C68.272 26.4296 69.68 26.4056 70.912 26.3576C72.16 26.2936 73.304 26.2136 74.344 26.1176C75.4 26.0056 76.4081 25.8936 77.3681 25.7816L77.3441 28.9016C76.5281 28.9976 75.7281 29.0776 74.944 29.1416C74.16 29.2056 73.36 29.2616 72.544 29.3096C71.744 29.3416 70.864 29.3656 69.904 29.3816C68.944 29.3976 67.864 29.4056 66.664 29.4056C66.216 29.4056 65.648 29.3976 64.96 29.3816C64.272 29.3496 63.576 29.3096 62.872 29.2616C62.168 29.2136 61.552 29.1576 61.024 29.0936L60.976 25.9736ZM97.1441 19.0616C97.1281 19.1896 97.1041 19.4136 97.0721 19.7336C97.0401 20.0376 97.0161 20.3416 97 20.6456C96.984 20.9336 96.9681 21.1496 96.9521 21.2936C96.9361 21.5976 96.9281 22.0296 96.9281 22.5896C96.9281 23.1336 96.9281 23.7416 96.9281 24.4136C96.9281 25.0696 96.9281 25.7336 96.9281 26.4056C96.9441 27.0776 96.9521 27.7096 96.9521 28.3016C96.9681 28.8936 96.976 29.3816 96.976 29.7656L93.6641 28.7096C93.6641 28.3896 93.6641 27.9736 93.6641 27.4616C93.6641 26.9336 93.6641 26.3736 93.6641 25.7816C93.6641 25.1736 93.6561 24.5736 93.64 23.9816C93.64 23.3896 93.6321 22.8616 93.6161 22.3976C93.6 21.9336 93.584 21.5656 93.5681 21.2936C93.5201 20.7656 93.4721 20.3016 93.424 19.9016C93.3921 19.5016 93.3601 19.2216 93.3281 19.0616H97.1441ZM83.344 21.9416C84.08 21.9416 84.904 21.9416 85.816 21.9416C86.728 21.9256 87.672 21.9096 88.648 21.8936C89.64 21.8776 90.6081 21.8616 91.5521 21.8456C92.4961 21.8136 93.376 21.7976 94.192 21.7976C95.008 21.7816 95.6961 21.7736 96.2561 21.7736C96.8321 21.7736 97.4801 21.7736 98.2 21.7736C98.9201 21.7736 99.6401 21.7736 100.36 21.7736C101.08 21.7736 101.744 21.7736 102.352 21.7736C102.96 21.7736 103.44 21.7736 103.792 21.7736L103.744 24.9176C102.976 24.8856 101.96 24.8536 100.696 24.8216C99.4321 24.7896 97.9201 24.7736 96.1601 24.7736C95.0561 24.7736 93.9441 24.7816 92.8241 24.7976C91.7041 24.8136 90.592 24.8456 89.488 24.8936C88.4 24.9256 87.344 24.9656 86.32 25.0136C85.312 25.0616 84.352 25.1096 83.44 25.1576L83.344 21.9416ZM96.4721 29.0936C96.4721 30.4696 96.3121 31.6136 95.992 32.5256C95.672 33.4216 95.1841 34.1016 94.528 34.5656C93.8881 35.0136 93.0881 35.2376 92.1281 35.2376C91.664 35.2376 91.184 35.1496 90.6881 34.9736C90.2081 34.7816 89.752 34.5016 89.32 34.1336C88.904 33.7496 88.5601 33.2776 88.2881 32.7176C88.032 32.1416 87.904 31.4856 87.904 30.7496C87.904 29.8056 88.128 28.9896 88.5761 28.3016C89.024 27.6136 89.624 27.0856 90.376 26.7176C91.144 26.3496 91.976 26.1656 92.872 26.1656C93.9601 26.1656 94.8721 26.4136 95.6081 26.9096C96.3601 27.3896 96.9201 28.0376 97.2881 28.8536C97.672 29.6696 97.864 30.5896 97.864 31.6136C97.864 32.3816 97.7281 33.1976 97.4561 34.0616C97.2001 34.9256 96.7681 35.7656 96.1601 36.5816C95.5521 37.3976 94.7441 38.1336 93.7361 38.7896C92.7281 39.4616 91.4881 40.0056 90.0161 40.4216L87.208 37.6136C88.2 37.4056 89.136 37.1496 90.0161 36.8456C90.9121 36.5256 91.7041 36.1176 92.3921 35.6216C93.08 35.1096 93.616 34.4856 94 33.7496C94.3841 33.0136 94.5761 32.1096 94.5761 31.0376C94.5761 30.3336 94.4001 29.8136 94.0481 29.4776C93.7121 29.1256 93.2881 28.9496 92.7761 28.9496C92.5041 28.9496 92.24 29.0136 91.984 29.1416C91.728 29.2536 91.512 29.4376 91.3361 29.6936C91.176 29.9496 91.096 30.2776 91.096 30.6776C91.096 31.1736 91.272 31.5736 91.6241 31.8776C91.976 32.1816 92.36 32.3336 92.7761 32.3336C93.1281 32.3336 93.4481 32.2216 93.7361 31.9976C94.0241 31.7576 94.2001 31.3576 94.2641 30.7976C94.3441 30.2216 94.2481 29.4536 93.976 28.4936L96.4721 29.0936ZM100.192 18.2936C100.496 18.7256 100.792 19.1976 101.08 19.7096C101.368 20.2056 101.624 20.6696 101.848 21.1016L99.6161 22.0136C99.3761 21.5336 99.1281 21.0536 98.872 20.5736C98.6321 20.0936 98.3521 19.6296 98.0321 19.1816L100.192 18.2936ZM103.504 17.5736C103.792 18.0216 104.08 18.4936 104.368 18.9896C104.672 19.4856 104.936 19.9416 105.16 20.3576L102.976 21.2936C102.72 20.7976 102.456 20.3176 102.184 19.8536C101.912 19.3736 101.616 18.9176 101.296 18.4856L103.504 17.5736ZM116.512 23.2376C117.216 23.3016 117.92 23.3576 118.624 23.4056C119.328 23.4376 120.048 23.4536 120.784 23.4536C122.24 23.4536 123.696 23.3896 125.152 23.2616C126.624 23.1336 127.992 22.9336 129.256 22.6616V25.9736C127.992 26.1496 126.632 26.2856 125.176 26.3816C123.72 26.4776 122.256 26.5336 120.784 26.5496C120.08 26.5496 119.368 26.5416 118.648 26.5256C117.944 26.4936 117.24 26.4536 116.536 26.4056L116.512 23.2376ZM125.872 19.2776C125.84 19.5016 125.808 19.7576 125.776 20.0456C125.76 20.3176 125.744 20.5816 125.728 20.8376C125.712 21.0936 125.696 21.4376 125.68 21.8696C125.664 22.3016 125.648 22.7896 125.632 23.3336C125.632 23.8776 125.632 24.4536 125.632 25.0616C125.632 26.2136 125.648 27.2696 125.68 28.2296C125.728 29.1896 125.776 30.0696 125.824 30.8696C125.872 31.6536 125.912 32.3736 125.944 33.0296C125.992 33.6856 126.016 34.2936 126.016 34.8536C126.016 35.5096 125.92 36.1176 125.728 36.6776C125.552 37.2216 125.272 37.6936 124.888 38.0936C124.504 38.4936 124 38.7976 123.376 39.0056C122.768 39.2296 122.024 39.3416 121.144 39.3416C119.464 39.3416 118.128 38.9976 117.136 38.3096C116.144 37.6216 115.648 36.6216 115.648 35.3096C115.648 34.4616 115.872 33.7176 116.32 33.0776C116.768 32.4216 117.4 31.9176 118.216 31.5656C119.032 31.2136 119.992 31.0376 121.096 31.0376C122.264 31.0376 123.32 31.1656 124.264 31.4216C125.224 31.6776 126.088 32.0136 126.856 32.4296C127.624 32.8296 128.312 33.2616 128.92 33.7256C129.528 34.1896 130.056 34.6376 130.504 35.0696L128.704 37.8536C127.776 36.9576 126.872 36.1976 125.992 35.5736C125.128 34.9336 124.272 34.4456 123.424 34.1096C122.576 33.7736 121.712 33.6056 120.832 33.6056C120.208 33.6056 119.704 33.7256 119.32 33.9656C118.936 34.2056 118.744 34.5336 118.744 34.9496C118.744 35.3976 118.944 35.7256 119.344 35.9336C119.744 36.1256 120.232 36.2216 120.808 36.2216C121.256 36.2216 121.608 36.1416 121.864 35.9816C122.136 35.8216 122.328 35.5896 122.44 35.2856C122.552 34.9816 122.608 34.6056 122.608 34.1576C122.608 33.7416 122.592 33.2056 122.56 32.5496C122.528 31.8776 122.488 31.1416 122.44 30.3416C122.408 29.5256 122.376 28.6696 122.344 27.7736C122.312 26.8616 122.296 25.9656 122.296 25.0856C122.296 24.1416 122.288 23.2936 122.272 22.5416C122.272 21.7736 122.264 21.2216 122.248 20.8856C122.248 20.7096 122.224 20.4616 122.176 20.1416C122.144 19.8056 122.112 19.5176 122.08 19.2776H125.872ZM114.184 19.5416C114.12 19.7176 114.04 19.9656 113.944 20.2856C113.864 20.5896 113.792 20.8936 113.728 21.1976C113.664 21.4856 113.616 21.7016 113.584 21.8456C113.52 22.1336 113.44 22.5576 113.344 23.1176C113.248 23.6776 113.144 24.3176 113.032 25.0376C112.936 25.7416 112.84 26.4696 112.744 27.2216C112.648 27.9576 112.568 28.6616 112.504 29.3336C112.456 30.0056 112.432 30.5736 112.432 31.0376C112.432 31.1656 112.432 31.3416 112.432 31.5656C112.448 31.7736 112.472 31.9496 112.504 32.0936C112.6 31.8216 112.704 31.5736 112.816 31.3496C112.944 31.1096 113.064 30.8776 113.176 30.6536C113.288 30.4136 113.392 30.1656 113.488 29.9096L115.12 31.2056C114.88 31.8936 114.64 32.6056 114.4 33.3416C114.176 34.0776 113.976 34.7736 113.8 35.4296C113.624 36.0696 113.488 36.6136 113.392 37.0616C113.36 37.2216 113.328 37.4216 113.296 37.6616C113.264 37.8856 113.248 38.0616 113.248 38.1896C113.248 38.3176 113.248 38.4776 113.248 38.6696C113.248 38.8616 113.256 39.0456 113.272 39.2216L110.272 39.4376C110.032 38.6216 109.808 37.5496 109.6 36.2216C109.408 34.8776 109.312 33.3896 109.312 31.7576C109.312 30.8456 109.344 29.9016 109.408 28.9256C109.488 27.9496 109.584 27.0056 109.696 26.0936C109.808 25.1656 109.912 24.3336 110.008 23.5976C110.12 22.8456 110.208 22.2376 110.272 21.7736C110.32 21.4216 110.368 21.0136 110.416 20.5496C110.464 20.0856 110.496 19.6536 110.512 19.2536L114.184 19.5416ZM137.92 17.6936L141.04 18.6056C140.608 19.4856 140.088 20.3496 139.48 21.1976C138.888 22.0296 138.256 22.8056 137.584 23.5256C136.912 24.2456 136.24 24.8696 135.568 25.3976C135.376 25.2056 135.12 24.9816 134.8 24.7256C134.48 24.4536 134.152 24.1976 133.816 23.9576C133.496 23.7016 133.208 23.4936 132.952 23.3336C133.96 22.6776 134.912 21.8456 135.808 20.8376C136.704 19.8296 137.408 18.7816 137.92 17.6936ZM137.896 20.1416H154.432V22.9496H137.176L137.896 20.1416ZM133.528 25.7096H155.296V28.5416H133.528V25.7096ZM133.936 31.3256H154.96V34.1576H133.936V31.3256ZM141.016 21.1496H143.656V32.8136H141.016V21.1496ZM136.768 21.1496H139.576V32.8376H136.768V21.1496ZM145.144 21.1496H147.784V32.8376H145.144V21.1496ZM149.32 21.1496H152.224V32.8376H149.32V21.1496ZM140.272 35.4056L143.224 35.0696C143.384 35.7896 143.52 36.5816 143.632 37.4456C143.76 38.3096 143.832 39.0456 143.848 39.6536L140.704 40.1096C140.704 39.7096 140.688 39.2376 140.656 38.6936C140.624 38.1656 140.576 37.6136 140.512 37.0376C140.448 36.4616 140.368 35.9176 140.272 35.4056ZM145 35.4776L148 34.9736C148.208 35.4536 148.4 35.9736 148.576 36.5336C148.768 37.0776 148.936 37.6056 149.08 38.1176C149.224 38.6296 149.328 39.0936 149.392 39.5096L146.2 40.1336C146.12 39.5256 145.968 38.7896 145.744 37.9256C145.52 37.0456 145.272 36.2296 145 35.4776ZM149.752 35.3576L152.8 34.4216C153.168 34.9016 153.544 35.4376 153.928 36.0296C154.312 36.6056 154.672 37.1816 155.008 37.7576C155.344 38.3176 155.608 38.8296 155.8 39.2936L152.536 40.3736C152.376 39.9256 152.144 39.4136 151.84 38.8376C151.536 38.2616 151.192 37.6696 150.808 37.0616C150.44 36.4536 150.088 35.8856 149.752 35.3576ZM135.904 34.5176L139.024 35.2616C138.752 36.1736 138.384 37.0936 137.92 38.0216C137.456 38.9496 136.936 39.7336 136.36 40.3736L133.264 39.1496C133.808 38.6376 134.32 37.9576 134.8 37.1096C135.28 36.2616 135.648 35.3976 135.904 34.5176ZM162.016 17.8136H164.968V40.3016H162.016V17.8136ZM158.464 25.6616H168.4V28.6376H158.464V25.6616ZM161.44 27.2456L163.168 28.1096C162.976 28.9256 162.744 29.7816 162.472 30.6776C162.216 31.5576 161.928 32.4376 161.608 33.3176C161.288 34.1816 160.944 35.0056 160.576 35.7896C160.208 36.5736 159.824 37.2536 159.424 37.8296C159.328 37.4936 159.2 37.1336 159.04 36.7496C158.88 36.3496 158.704 35.9576 158.512 35.5736C158.336 35.1736 158.16 34.8216 157.984 34.5176C158.464 33.9416 158.928 33.2296 159.376 32.3816C159.824 31.5176 160.232 30.6376 160.6 29.7416C160.968 28.8296 161.248 27.9976 161.44 27.2456ZM164.92 28.7336C165.064 28.8456 165.256 29.0376 165.496 29.3096C165.736 29.5656 166 29.8536 166.288 30.1736C166.592 30.4936 166.888 30.8216 167.176 31.1576C167.464 31.4776 167.72 31.7736 167.944 32.0456C168.168 32.3016 168.328 32.4936 168.424 32.6216L166.504 35.0936C166.344 34.7576 166.136 34.3576 165.88 33.8936C165.64 33.4296 165.368 32.9576 165.064 32.4776C164.776 31.9816 164.496 31.5176 164.224 31.0856C163.952 30.6376 163.704 30.2616 163.48 29.9576L164.92 28.7336ZM158.368 19.6856L160.576 19.1096C160.784 19.6856 160.968 20.3176 161.128 21.0056C161.288 21.6776 161.424 22.3336 161.536 22.9736C161.648 23.6136 161.72 24.1976 161.752 24.7256L159.376 25.3496C159.376 24.8376 159.328 24.2536 159.232 23.5976C159.136 22.9416 159.008 22.2696 158.848 21.5816C158.704 20.8936 158.544 20.2616 158.368 19.6856ZM166.312 18.9656L168.976 19.5416C168.768 20.1976 168.552 20.8776 168.328 21.5816C168.12 22.2696 167.904 22.9336 167.68 23.5736C167.472 24.1976 167.264 24.7576 167.056 25.2536L165.064 24.7016C165.224 24.1736 165.384 23.5736 165.544 22.9016C165.704 22.2296 165.856 21.5496 166 20.8616C166.144 20.1736 166.248 19.5416 166.312 18.9656ZM175.336 17.6696H178.312V40.3256H175.336V17.6696ZM168.328 32.6216L180.664 30.4136L181.144 33.3656L168.832 35.5976L168.328 32.6216ZM169.576 21.0296L171.112 18.8696C171.56 19.1416 172.024 19.4456 172.504 19.7816C173 20.1176 173.464 20.4616 173.896 20.8136C174.344 21.1496 174.696 21.4696 174.952 21.7736L173.296 24.1736C173.056 23.8536 172.728 23.5096 172.312 23.1416C171.896 22.7736 171.448 22.4056 170.968 22.0376C170.488 21.6536 170.024 21.3176 169.576 21.0296ZM168.52 27.0776L170.008 24.7976C170.472 25.0376 170.96 25.3256 171.472 25.6616C171.984 25.9816 172.472 26.3096 172.936 26.6456C173.4 26.9816 173.776 27.3016 174.064 27.6056L172.48 30.1256C172.208 29.8376 171.848 29.5096 171.4 29.1416C170.952 28.7736 170.472 28.4136 169.96 28.0616C169.464 27.6936 168.984 27.3656 168.52 27.0776ZM195.4 24.6296H203.848V27.4856H195.4V24.6296ZM195.4 30.2456H203.872V33.1256H195.4V30.2456ZM195.4 35.8856H203.872V38.7656H195.4V35.8856ZM193.888 18.9416H205.336V39.9896H202.144V21.9416H196.936V40.1576H193.888V18.9416ZM183.832 22.5896H193.096V25.5896H183.832V22.5896ZM187.168 17.6936H190.216V40.3496H187.168V17.6936ZM187 24.6536L188.872 25.3016C188.664 26.2776 188.424 27.2856 188.152 28.3256C187.88 29.3496 187.56 30.3576 187.192 31.3496C186.84 32.3416 186.456 33.2616 186.04 34.1096C185.624 34.9576 185.176 35.6936 184.696 36.3176C184.536 35.8696 184.304 35.3576 184 34.7816C183.712 34.2056 183.448 33.7176 183.208 33.3176C183.624 32.7896 184.024 32.1896 184.408 31.5176C184.792 30.8296 185.152 30.1016 185.488 29.3336C185.824 28.5496 186.12 27.7576 186.376 26.9576C186.632 26.1576 186.84 25.3896 187 24.6536ZM190 26.6216C190.176 26.7816 190.432 27.0616 190.768 27.4616C191.104 27.8456 191.456 28.2696 191.824 28.7336C192.208 29.1976 192.552 29.6296 192.856 30.0296C193.176 30.4136 193.4 30.6856 193.528 30.8456L191.752 33.4136C191.576 33.0456 191.352 32.6216 191.08 32.1416C190.824 31.6456 190.536 31.1496 190.216 30.6536C189.912 30.1416 189.616 29.6616 189.328 29.2136C189.04 28.7656 188.784 28.3816 188.56 28.0616L190 26.6216ZM222.832 24.5816L224.776 22.4936C225.464 22.8776 226.216 23.3176 227.032 23.8136C227.848 24.2936 228.632 24.7816 229.384 25.2776C230.152 25.7576 230.776 26.2056 231.256 26.6216L229.168 28.9976C228.72 28.5816 228.128 28.1176 227.392 27.6056C226.672 27.0776 225.904 26.5496 225.088 26.0216C224.288 25.4936 223.536 25.0136 222.832 24.5816ZM224.584 27.9176H226.192V31.6376C226.192 31.9736 226.24 32.3496 226.336 32.7656C226.448 33.1656 226.616 33.5896 226.84 34.0376C227.08 34.4856 227.4 34.9256 227.8 35.3576C228.2 35.7896 228.704 36.2056 229.312 36.6056C229.92 37.0056 230.648 37.3656 231.496 37.6856C231.208 38.0536 230.88 38.5016 230.512 39.0296C230.144 39.5576 229.856 40.0136 229.648 40.3976C228.944 40.1416 228.304 39.7976 227.728 39.3656C227.152 38.9496 226.648 38.5016 226.216 38.0216C225.784 37.5256 225.432 37.0376 225.16 36.5576C224.888 36.0776 224.688 35.6616 224.56 35.3096C224.432 35.6776 224.216 36.0936 223.912 36.5576C223.608 37.0216 223.216 37.5016 222.736 37.9976C222.272 38.4776 221.728 38.9256 221.104 39.3416C220.48 39.7576 219.784 40.1096 219.016 40.3976C218.904 40.1576 218.744 39.8696 218.536 39.5336C218.328 39.2136 218.112 38.8936 217.888 38.5736C217.664 38.2536 217.456 37.9976 217.264 37.8056C218.128 37.5016 218.88 37.1496 219.52 36.7496C220.16 36.3336 220.696 35.9016 221.128 35.4536C221.576 34.9896 221.928 34.5336 222.184 34.0856C222.456 33.6376 222.648 33.2056 222.76 32.7896C222.872 32.3576 222.928 31.9736 222.928 31.6376V27.9176H224.584ZM223.144 17.6936H226.264C226.216 19.1336 226.104 20.4456 225.928 21.6296C225.752 22.8136 225.432 23.8856 224.968 24.8456C224.52 25.7896 223.848 26.6216 222.952 27.3416C222.072 28.0616 220.888 28.6776 219.4 29.1896C219.256 28.8216 219.008 28.3896 218.656 27.8936C218.32 27.3816 217.984 26.9736 217.648 26.6696C218.912 26.2856 219.904 25.8216 220.624 25.2776C221.344 24.7176 221.872 24.0776 222.208 23.3576C222.56 22.6216 222.792 21.7896 222.904 20.8616C223.016 19.9176 223.096 18.8616 223.144 17.6936ZM219.616 19.0616L222.208 19.5656C222.096 20.3816 221.88 21.2056 221.56 22.0376C221.256 22.8536 220.848 23.5336 220.336 24.0776L217.84 23.0456C218.272 22.5976 218.64 22.0056 218.944 21.2696C219.264 20.5336 219.488 19.7976 219.616 19.0616ZM219.352 29.5256L222.112 30.0776C221.952 30.9896 221.688 31.9016 221.32 32.8136C220.952 33.7096 220.48 34.4616 219.904 35.0696L217.288 33.7496C217.784 33.3016 218.208 32.6856 218.56 31.9016C218.928 31.1016 219.192 30.3096 219.352 29.5256ZM228.064 18.8936L231.136 19.8296C230.736 20.5656 230.328 21.2776 229.912 21.9656C229.512 22.6536 229.144 23.2456 228.808 23.7416L226.456 22.8776C226.648 22.5096 226.848 22.0936 227.056 21.6296C227.28 21.1656 227.48 20.6936 227.656 20.2136C227.832 19.7336 227.968 19.2936 228.064 18.8936ZM228.184 29.3336L231.304 30.2936C230.872 31.0456 230.44 31.7976 230.008 32.5496C229.592 33.2856 229.192 33.9096 228.808 34.4216L226.336 33.5336C226.576 33.1496 226.808 32.7176 227.032 32.2376C227.256 31.7416 227.464 31.2456 227.656 30.7496C227.864 30.2376 228.04 29.7656 228.184 29.3336ZM209.8 25.0856H217.12V27.4616H209.8V25.0856ZM209.872 18.4136H217.048V20.7896H209.872V18.4136ZM209.8 28.3736H217.12V30.7496H209.8V28.3736ZM208.648 21.6776H217.912V24.1736H208.648V21.6776ZM211.168 31.7336H217.144V39.1016H211.168V36.6056H214.456V34.2296H211.168V31.7336ZM209.752 31.7336H212.416V40.0136H209.752V31.7336ZM243.832 31.8536L243.16 23.9576L243.04 20.1896H247.36L247.24 23.9576L246.568 31.8536H243.832ZM245.2 38.4056C244.528 38.4056 243.976 38.1896 243.544 37.7576C243.128 37.3256 242.92 36.7736 242.92 36.1016C242.92 35.4456 243.136 34.9096 243.568 34.4936C244 34.0616 244.544 33.8456 245.2 33.8456C245.856 33.8456 246.4 34.0616 246.832 34.4936C247.264 34.9096 247.48 35.4456 247.48 36.1016C247.48 36.7736 247.264 37.3256 246.832 37.7576C246.4 38.1896 245.856 38.4056 245.2 38.4056Z" fill="black"/>
</svg>
