<svg width="213" height="57" viewBox="0 0 213 57" fill="none" xmlns="http://www.w3.org/2000/svg">
<path fill-rule="evenodd" clip-rule="evenodd" d="M2 4C2 2.89543 2.89543 2 4 2H209C210.105 2 211 2.89543 211 4V40C211 41.1046 210.105 42 209 42H78.5616C77.2604 42 76.3057 43.2228 76.6213 44.4851L78.6567 52.6268C79.1108 54.4432 77.0435 55.8319 75.5337 54.7247L58.7098 42.3872C58.3668 42.1356 57.9525 42 57.5271 42H4C2.89543 42 2 41.1046 2 40V4Z" fill="#FFEA00"/>
<path d="M58.7098 42.3872L57.8228 43.5968L58.7098 42.3872ZM78.6567 52.6268L77.2015 52.9906L78.6567 52.6268ZM76.6213 44.4851L78.0765 44.1213L76.6213 44.4851ZM209 3.5H4V0.5H209V3.5ZM209.5 40V4H212.5V40H209.5ZM78.5616 40.5H209V43.5H78.5616V40.5ZM77.2015 52.9906L75.1661 44.8489L78.0765 44.1213L80.1119 52.263L77.2015 52.9906ZM59.5969 41.1776L76.4207 53.5151L74.6467 55.9343L57.8228 43.5968L59.5969 41.1776ZM4 40.5H57.5271V43.5H4V40.5ZM3.5 4V40H0.5V4H3.5ZM4 43.5C2.067 43.5 0.5 41.933 0.5 40H3.5C3.5 40.2761 3.72386 40.5 4 40.5V43.5ZM57.8228 43.5968C57.737 43.5339 57.6334 43.5 57.5271 43.5V40.5C58.2715 40.5 58.9966 40.7374 59.5969 41.1776L57.8228 43.5968ZM80.1119 52.263C80.9066 55.4416 77.2888 57.8719 74.6467 55.9343L76.4207 53.5151C76.7982 53.7919 77.315 53.4447 77.2015 52.9906L80.1119 52.263ZM78.5616 43.5C78.2363 43.5 77.9976 43.8057 78.0765 44.1213L75.1661 44.8489C74.6138 42.6399 76.2846 40.5 78.5616 40.5V43.5ZM212.5 40C212.5 41.933 210.933 43.5 209 43.5V40.5C209.276 40.5 209.5 40.2761 209.5 40H212.5ZM4 3.5C3.72386 3.5 3.5 3.72386 3.5 4H0.5C0.5 2.067 2.06702 0.5 4 0.5V3.5ZM209 0.5C210.933 0.5 212.5 2.067 212.5 4H209.5C209.5 3.72386 209.276 3.5 209 3.5V0.5Z" fill="black"/>
<path d="M42.222 14.366C42.198 14.558 42.174 14.768 42.15 14.996C42.126 15.212 42.108 15.434 42.096 15.662C42.096 15.914 42.09 16.25 42.078 16.67C42.066 17.078 42.054 17.528 42.042 18.02C42.042 18.5 42.042 18.98 42.042 19.46C42.042 19.94 42.042 20.372 42.042 20.756C42.042 21.224 42.054 21.764 42.078 22.376C42.114 22.976 42.15 23.594 42.186 24.23C42.234 24.854 42.27 25.448 42.294 26.012C42.318 26.564 42.33 27.026 42.33 27.398C42.33 27.938 42.192 28.418 41.916 28.838C41.64 29.246 41.232 29.57 40.692 29.81C40.152 30.062 39.486 30.188 38.694 30.188C37.218 30.188 36.096 29.912 35.328 29.36C34.572 28.808 34.194 28.046 34.194 27.074C34.194 26.45 34.374 25.898 34.734 25.418C35.094 24.938 35.61 24.566 36.282 24.302C36.966 24.026 37.776 23.888 38.712 23.888C39.708 23.888 40.638 23.99 41.502 24.194C42.366 24.398 43.152 24.668 43.86 25.004C44.58 25.328 45.216 25.676 45.768 26.048C46.332 26.42 46.806 26.768 47.19 27.092L45.75 29.306C45.318 28.898 44.832 28.49 44.292 28.082C43.764 27.674 43.188 27.308 42.564 26.984C41.94 26.66 41.28 26.402 40.584 26.21C39.888 26.018 39.156 25.922 38.388 25.922C37.812 25.922 37.368 26.024 37.056 26.228C36.756 26.42 36.606 26.654 36.606 26.93C36.606 27.134 36.672 27.314 36.804 27.47C36.936 27.626 37.128 27.746 37.38 27.83C37.644 27.902 37.956 27.938 38.316 27.938C38.628 27.938 38.898 27.902 39.126 27.83C39.354 27.758 39.528 27.632 39.648 27.452C39.768 27.26 39.828 27.008 39.828 26.696C39.828 26.444 39.816 26.084 39.792 25.616C39.768 25.136 39.744 24.608 39.72 24.032C39.696 23.444 39.672 22.862 39.648 22.286C39.624 21.71 39.612 21.2 39.612 20.756C39.612 20.312 39.612 19.844 39.612 19.352C39.624 18.86 39.63 18.374 39.63 17.894C39.63 17.414 39.63 16.976 39.63 16.58C39.642 16.184 39.648 15.872 39.648 15.644C39.648 15.476 39.636 15.266 39.612 15.014C39.6 14.762 39.57 14.546 39.522 14.366H42.222ZM34.59 15.968C34.926 16.016 35.292 16.064 35.688 16.112C36.084 16.16 36.486 16.208 36.894 16.256C37.302 16.292 37.686 16.322 38.046 16.346C38.406 16.358 38.724 16.364 39 16.364C40.248 16.364 41.478 16.328 42.69 16.256C43.914 16.184 45.198 16.04 46.542 15.824L46.524 18.092C45.936 18.176 45.234 18.254 44.418 18.326C43.602 18.398 42.726 18.458 41.79 18.506C40.866 18.542 39.942 18.56 39.018 18.56C38.646 18.56 38.19 18.548 37.65 18.524C37.122 18.488 36.588 18.446 36.048 18.398C35.508 18.338 35.04 18.284 34.644 18.236L34.59 15.968ZM34.482 19.874C34.77 19.922 35.112 19.97 35.508 20.018C35.904 20.066 36.306 20.102 36.714 20.126C37.134 20.15 37.524 20.174 37.884 20.198C38.256 20.21 38.55 20.216 38.766 20.216C39.954 20.216 41.01 20.198 41.934 20.162C42.87 20.114 43.728 20.054 44.508 19.982C45.3 19.898 46.056 19.814 46.776 19.73L46.758 22.07C46.146 22.142 45.546 22.202 44.958 22.25C44.37 22.298 43.77 22.34 43.158 22.376C42.558 22.4 41.898 22.418 41.178 22.43C40.458 22.442 39.648 22.448 38.748 22.448C38.412 22.448 37.986 22.442 37.47 22.43C36.954 22.406 36.432 22.376 35.904 22.34C35.376 22.304 34.914 22.262 34.518 22.214L34.482 19.874ZM61.608 14.69C61.596 14.786 61.578 14.954 61.554 15.194C61.53 15.422 61.512 15.65 61.5 15.878C61.488 16.094 61.476 16.256 61.464 16.364C61.452 16.592 61.446 16.916 61.446 17.336C61.446 17.744 61.446 18.2 61.446 18.704C61.446 19.196 61.446 19.694 61.446 20.198C61.458 20.702 61.464 21.176 61.464 21.62C61.476 22.064 61.482 22.43 61.482 22.718L58.998 21.926C58.998 21.686 58.998 21.374 58.998 20.99C58.998 20.594 58.998 20.174 58.998 19.73C58.998 19.274 58.992 18.824 58.98 18.38C58.98 17.936 58.974 17.54 58.962 17.192C58.95 16.844 58.938 16.568 58.926 16.364C58.89 15.968 58.854 15.62 58.818 15.32C58.794 15.02 58.77 14.81 58.746 14.69H61.608ZM51.258 16.85C51.81 16.85 52.428 16.85 53.112 16.85C53.796 16.838 54.504 16.826 55.236 16.814C55.98 16.802 56.706 16.79 57.414 16.778C58.122 16.754 58.782 16.742 59.394 16.742C60.006 16.73 60.522 16.724 60.942 16.724C61.374 16.724 61.86 16.724 62.4 16.724C62.94 16.724 63.48 16.724 64.02 16.724C64.56 16.724 65.058 16.724 65.514 16.724C65.97 16.724 66.33 16.724 66.594 16.724L66.558 19.082C65.982 19.058 65.22 19.034 64.272 19.01C63.324 18.986 62.19 18.974 60.87 18.974C60.042 18.974 59.208 18.98 58.368 18.992C57.528 19.004 56.694 19.028 55.866 19.064C55.05 19.088 54.258 19.118 53.49 19.154C52.734 19.19 52.014 19.226 51.33 19.262L51.258 16.85ZM61.104 22.214C61.104 23.246 60.984 24.104 60.744 24.788C60.504 25.46 60.138 25.97 59.646 26.318C59.166 26.654 58.566 26.822 57.846 26.822C57.498 26.822 57.138 26.756 56.766 26.624C56.406 26.48 56.064 26.27 55.74 25.994C55.428 25.706 55.17 25.352 54.966 24.932C54.774 24.5 54.678 24.008 54.678 23.456C54.678 22.748 54.846 22.136 55.182 21.62C55.518 21.104 55.968 20.708 56.532 20.432C57.108 20.156 57.732 20.018 58.404 20.018C59.22 20.018 59.904 20.204 60.456 20.576C61.02 20.936 61.44 21.422 61.716 22.034C62.004 22.646 62.148 23.336 62.148 24.104C62.148 24.68 62.046 25.292 61.842 25.94C61.65 26.588 61.326 27.218 60.87 27.83C60.414 28.442 59.808 28.994 59.052 29.486C58.296 29.99 57.366 30.398 56.262 30.71L54.156 28.604C54.9 28.448 55.602 28.256 56.262 28.028C56.934 27.788 57.528 27.482 58.044 27.11C58.56 26.726 58.962 26.258 59.25 25.706C59.538 25.154 59.682 24.476 59.682 23.672C59.682 23.144 59.55 22.754 59.286 22.502C59.034 22.238 58.716 22.106 58.332 22.106C58.128 22.106 57.93 22.154 57.738 22.25C57.546 22.334 57.384 22.472 57.252 22.664C57.132 22.856 57.072 23.102 57.072 23.402C57.072 23.774 57.204 24.074 57.468 24.302C57.732 24.53 58.02 24.644 58.332 24.644C58.596 24.644 58.836 24.56 59.052 24.392C59.268 24.212 59.4 23.912 59.448 23.492C59.508 23.06 59.436 22.484 59.232 21.764L61.104 22.214ZM63.894 14.114C64.122 14.438 64.344 14.792 64.56 15.176C64.776 15.548 64.968 15.896 65.136 16.22L63.462 16.904C63.282 16.544 63.096 16.184 62.904 15.824C62.724 15.464 62.514 15.116 62.274 14.78L63.894 14.114ZM66.378 13.574C66.594 13.91 66.81 14.264 67.026 14.636C67.254 15.008 67.452 15.35 67.62 15.662L65.982 16.364C65.79 15.992 65.592 15.632 65.388 15.284C65.184 14.924 64.962 14.582 64.722 14.258L66.378 13.574ZM76.134 17.822C76.662 17.87 77.19 17.912 77.718 17.948C78.246 17.972 78.786 17.984 79.338 17.984C80.43 17.984 81.522 17.936 82.614 17.84C83.718 17.744 84.744 17.594 85.692 17.39V19.874C84.744 20.006 83.724 20.108 82.632 20.18C81.54 20.252 80.442 20.294 79.338 20.306C78.81 20.306 78.276 20.3 77.736 20.288C77.208 20.264 76.68 20.234 76.152 20.198L76.134 17.822ZM83.154 14.852C83.13 15.02 83.106 15.212 83.082 15.428C83.07 15.632 83.058 15.83 83.046 16.022C83.034 16.214 83.022 16.472 83.01 16.796C82.998 17.12 82.986 17.486 82.974 17.894C82.974 18.302 82.974 18.734 82.974 19.19C82.974 20.054 82.986 20.846 83.01 21.566C83.046 22.286 83.082 22.946 83.118 23.546C83.154 24.134 83.184 24.674 83.208 25.166C83.244 25.658 83.262 26.114 83.262 26.534C83.262 27.026 83.19 27.482 83.046 27.902C82.914 28.31 82.704 28.664 82.416 28.964C82.128 29.264 81.75 29.492 81.282 29.648C80.826 29.816 80.268 29.9 79.608 29.9C78.348 29.9 77.346 29.642 76.602 29.126C75.858 28.61 75.486 27.86 75.486 26.876C75.486 26.24 75.654 25.682 75.99 25.202C76.326 24.71 76.8 24.332 77.412 24.068C78.024 23.804 78.744 23.672 79.572 23.672C80.448 23.672 81.24 23.768 81.948 23.96C82.668 24.152 83.316 24.404 83.892 24.716C84.468 25.016 84.984 25.34 85.44 25.688C85.896 26.036 86.292 26.372 86.628 26.696L85.278 28.784C84.582 28.112 83.904 27.542 83.244 27.074C82.596 26.594 81.954 26.228 81.318 25.976C80.682 25.724 80.034 25.598 79.374 25.598C78.906 25.598 78.528 25.688 78.24 25.868C77.952 26.048 77.808 26.294 77.808 26.606C77.808 26.942 77.958 27.188 78.258 27.344C78.558 27.488 78.924 27.56 79.356 27.56C79.692 27.56 79.956 27.5 80.148 27.38C80.352 27.26 80.496 27.086 80.58 26.858C80.664 26.63 80.706 26.348 80.706 26.012C80.706 25.7 80.694 25.298 80.67 24.806C80.646 24.302 80.616 23.75 80.58 23.15C80.556 22.538 80.532 21.896 80.508 21.224C80.484 20.54 80.472 19.868 80.472 19.208C80.472 18.5 80.466 17.864 80.454 17.3C80.454 16.724 80.448 16.31 80.436 16.058C80.436 15.926 80.418 15.74 80.382 15.5C80.358 15.248 80.334 15.032 80.31 14.852H83.154ZM74.388 15.05C74.34 15.182 74.28 15.368 74.208 15.608C74.148 15.836 74.094 16.064 74.046 16.292C73.998 16.508 73.962 16.67 73.938 16.778C73.89 16.994 73.83 17.312 73.758 17.732C73.686 18.152 73.608 18.632 73.524 19.172C73.452 19.7 73.38 20.246 73.308 20.81C73.236 21.362 73.176 21.89 73.128 22.394C73.092 22.898 73.074 23.324 73.074 23.672C73.074 23.768 73.074 23.9 73.074 24.068C73.086 24.224 73.104 24.356 73.128 24.464C73.2 24.26 73.278 24.074 73.362 23.906C73.458 23.726 73.548 23.552 73.632 23.384C73.716 23.204 73.794 23.018 73.866 22.826L75.09 23.798C74.91 24.314 74.73 24.848 74.55 25.4C74.382 25.952 74.232 26.474 74.1 26.966C73.968 27.446 73.866 27.854 73.794 28.19C73.77 28.31 73.746 28.46 73.722 28.64C73.698 28.808 73.686 28.94 73.686 29.036C73.686 29.132 73.686 29.252 73.686 29.396C73.686 29.54 73.692 29.678 73.704 29.81L71.454 29.972C71.274 29.36 71.106 28.556 70.95 27.56C70.806 26.552 70.734 25.436 70.734 24.212C70.734 23.528 70.758 22.82 70.806 22.088C70.866 21.356 70.938 20.648 71.022 19.964C71.106 19.268 71.184 18.644 71.256 18.092C71.34 17.528 71.406 17.072 71.454 16.724C71.49 16.46 71.526 16.154 71.562 15.806C71.598 15.458 71.622 15.134 71.634 14.834L74.388 15.05ZM92.19 13.664L94.53 14.348C94.206 15.008 93.816 15.656 93.36 16.292C92.916 16.916 92.442 17.498 91.938 18.038C91.434 18.578 90.93 19.046 90.426 19.442C90.282 19.298 90.09 19.13 89.85 18.938C89.61 18.734 89.364 18.542 89.112 18.362C88.872 18.17 88.656 18.014 88.464 17.894C89.22 17.402 89.934 16.778 90.606 16.022C91.278 15.266 91.806 14.48 92.19 13.664ZM92.172 15.5H104.574V17.606H91.632L92.172 15.5ZM88.896 19.676H105.222V21.8H88.896V19.676ZM89.202 23.888H104.97V26.012H89.202V23.888ZM94.512 16.256H96.492V25.004H94.512V16.256ZM91.326 16.256H93.432V25.022H91.326V16.256ZM97.608 16.256H99.588V25.022H97.608V16.256ZM100.74 16.256H102.918V25.022H100.74V16.256ZM93.954 26.948L96.168 26.696C96.288 27.236 96.39 27.83 96.474 28.478C96.57 29.126 96.624 29.678 96.636 30.134L94.278 30.476C94.278 30.176 94.266 29.822 94.242 29.414C94.218 29.018 94.182 28.604 94.134 28.172C94.086 27.74 94.026 27.332 93.954 26.948ZM97.5 27.002L99.75 26.624C99.906 26.984 100.05 27.374 100.182 27.794C100.326 28.202 100.452 28.598 100.56 28.982C100.668 29.366 100.746 29.714 100.794 30.026L98.4 30.494C98.34 30.038 98.226 29.486 98.058 28.838C97.89 28.178 97.704 27.566 97.5 27.002ZM101.064 26.912L103.35 26.21C103.626 26.57 103.908 26.972 104.196 27.416C104.484 27.848 104.754 28.28 105.006 28.712C105.258 29.132 105.456 29.516 105.6 29.864L103.152 30.674C103.032 30.338 102.858 29.954 102.63 29.522C102.402 29.09 102.144 28.646 101.856 28.19C101.58 27.734 101.316 27.308 101.064 26.912ZM90.678 26.282L93.018 26.84C92.814 27.524 92.538 28.214 92.19 28.91C91.842 29.606 91.452 30.194 91.02 30.674L88.698 29.756C89.106 29.372 89.49 28.862 89.85 28.226C90.21 27.59 90.486 26.942 90.678 26.282ZM110.262 13.754H112.476V30.62H110.262V13.754ZM107.598 19.64H115.05V21.872H107.598V19.64ZM109.83 20.828L111.126 21.476C110.982 22.088 110.808 22.73 110.604 23.402C110.412 24.062 110.196 24.722 109.956 25.382C109.716 26.03 109.458 26.648 109.182 27.236C108.906 27.824 108.618 28.334 108.318 28.766C108.246 28.514 108.15 28.244 108.03 27.956C107.91 27.656 107.778 27.362 107.634 27.074C107.502 26.774 107.37 26.51 107.238 26.282C107.598 25.85 107.946 25.316 108.282 24.68C108.618 24.032 108.924 23.372 109.2 22.7C109.476 22.016 109.686 21.392 109.83 20.828ZM112.44 21.944C112.548 22.028 112.692 22.172 112.872 22.376C113.052 22.568 113.25 22.784 113.466 23.024C113.694 23.264 113.916 23.51 114.132 23.762C114.348 24.002 114.54 24.224 114.708 24.428C114.876 24.62 114.996 24.764 115.068 24.86L113.628 26.714C113.508 26.462 113.352 26.162 113.16 25.814C112.98 25.466 112.776 25.112 112.548 24.752C112.332 24.38 112.122 24.032 111.918 23.708C111.714 23.372 111.528 23.09 111.36 22.862L112.44 21.944ZM107.526 15.158L109.182 14.726C109.338 15.158 109.476 15.632 109.596 16.148C109.716 16.652 109.818 17.144 109.902 17.624C109.986 18.104 110.04 18.542 110.064 18.938L108.282 19.406C108.282 19.022 108.246 18.584 108.174 18.092C108.102 17.6 108.006 17.096 107.886 16.58C107.778 16.064 107.658 15.59 107.526 15.158ZM113.484 14.618L115.482 15.05C115.326 15.542 115.164 16.052 114.996 16.58C114.84 17.096 114.678 17.594 114.51 18.074C114.354 18.542 114.198 18.962 114.042 19.334L112.548 18.92C112.668 18.524 112.788 18.074 112.908 17.57C113.028 17.066 113.142 16.556 113.25 16.04C113.358 15.524 113.436 15.05 113.484 14.618ZM120.252 13.646H122.484V30.638H120.252V13.646ZM114.996 24.86L124.248 23.204L124.608 25.418L115.374 27.092L114.996 24.86ZM115.932 16.166L117.084 14.546C117.42 14.75 117.768 14.978 118.128 15.23C118.5 15.482 118.848 15.74 119.172 16.004C119.508 16.256 119.772 16.496 119.964 16.724L118.722 18.524C118.542 18.284 118.296 18.026 117.984 17.75C117.672 17.474 117.336 17.198 116.976 16.922C116.616 16.634 116.268 16.382 115.932 16.166ZM115.14 20.702L116.256 18.992C116.604 19.172 116.97 19.388 117.354 19.64C117.738 19.88 118.104 20.126 118.452 20.378C118.8 20.63 119.082 20.87 119.298 21.098L118.11 22.988C117.906 22.772 117.636 22.526 117.3 22.25C116.964 21.974 116.604 21.704 116.22 21.44C115.848 21.164 115.488 20.918 115.14 20.702ZM135.3 18.866H141.636V21.008H135.3V18.866ZM135.3 23.078H141.654V25.238H135.3V23.078ZM135.3 27.308H141.654V29.468H135.3V27.308ZM134.166 14.6H142.752V30.386H140.358V16.85H136.452V30.512H134.166V14.6ZM126.624 17.336H133.572V19.586H126.624V17.336ZM129.126 13.664H131.412V30.656H129.126V13.664ZM129 18.884L130.404 19.37C130.248 20.102 130.068 20.858 129.864 21.638C129.66 22.406 129.42 23.162 129.144 23.906C128.88 24.65 128.592 25.34 128.28 25.976C127.968 26.612 127.632 27.164 127.272 27.632C127.152 27.296 126.978 26.912 126.75 26.48C126.534 26.048 126.336 25.682 126.156 25.382C126.468 24.986 126.768 24.536 127.056 24.032C127.344 23.516 127.614 22.97 127.866 22.394C128.118 21.806 128.34 21.212 128.532 20.612C128.724 20.012 128.88 19.436 129 18.884ZM131.25 20.36C131.382 20.48 131.574 20.69 131.826 20.99C132.078 21.278 132.342 21.596 132.618 21.944C132.906 22.292 133.164 22.616 133.392 22.916C133.632 23.204 133.8 23.408 133.896 23.528L132.564 25.454C132.432 25.178 132.264 24.86 132.06 24.5C131.868 24.128 131.652 23.756 131.412 23.384C131.184 23 130.962 22.64 130.746 22.304C130.53 21.968 130.338 21.68 130.17 21.44L131.25 20.36ZM155.874 18.83L157.332 17.264C157.848 17.552 158.412 17.882 159.024 18.254C159.636 18.614 160.224 18.98 160.788 19.352C161.364 19.712 161.832 20.048 162.192 20.36L160.626 22.142C160.29 21.83 159.846 21.482 159.294 21.098C158.754 20.702 158.178 20.306 157.566 19.91C156.966 19.514 156.402 19.154 155.874 18.83ZM157.188 21.332H158.394V24.122C158.394 24.374 158.43 24.656 158.502 24.968C158.586 25.268 158.712 25.586 158.88 25.922C159.06 26.258 159.3 26.588 159.6 26.912C159.9 27.236 160.278 27.548 160.734 27.848C161.19 28.148 161.736 28.418 162.372 28.658C162.156 28.934 161.91 29.27 161.634 29.666C161.358 30.062 161.142 30.404 160.986 30.692C160.458 30.5 159.978 30.242 159.546 29.918C159.114 29.606 158.736 29.27 158.412 28.91C158.088 28.538 157.824 28.172 157.62 27.812C157.416 27.452 157.266 27.14 157.17 26.876C157.074 27.152 156.912 27.464 156.684 27.812C156.456 28.16 156.162 28.52 155.802 28.892C155.454 29.252 155.046 29.588 154.578 29.9C154.11 30.212 153.588 30.476 153.012 30.692C152.928 30.512 152.808 30.296 152.652 30.044C152.496 29.804 152.334 29.564 152.166 29.324C151.998 29.084 151.842 28.892 151.698 28.748C152.346 28.52 152.91 28.256 153.39 27.956C153.87 27.644 154.272 27.32 154.596 26.984C154.932 26.636 155.196 26.294 155.388 25.958C155.592 25.622 155.736 25.298 155.82 24.986C155.904 24.662 155.946 24.374 155.946 24.122V21.332H157.188ZM156.108 13.664H158.448C158.412 14.744 158.328 15.728 158.196 16.616C158.064 17.504 157.824 18.308 157.476 19.028C157.14 19.736 156.636 20.36 155.964 20.9C155.304 21.44 154.416 21.902 153.3 22.286C153.192 22.01 153.006 21.686 152.742 21.314C152.49 20.93 152.238 20.624 151.986 20.396C152.934 20.108 153.678 19.76 154.218 19.352C154.758 18.932 155.154 18.452 155.406 17.912C155.67 17.36 155.844 16.736 155.928 16.04C156.012 15.332 156.072 14.54 156.108 13.664ZM153.462 14.69L155.406 15.068C155.322 15.68 155.16 16.298 154.92 16.922C154.692 17.534 154.386 18.044 154.002 18.452L152.13 17.678C152.454 17.342 152.73 16.898 152.958 16.346C153.198 15.794 153.366 15.242 153.462 14.69ZM153.264 22.538L155.334 22.952C155.214 23.636 155.016 24.32 154.74 25.004C154.464 25.676 154.11 26.24 153.678 26.696L151.716 25.706C152.088 25.37 152.406 24.908 152.67 24.32C152.946 23.72 153.144 23.126 153.264 22.538ZM159.798 14.564L162.102 15.266C161.802 15.818 161.496 16.352 161.184 16.868C160.884 17.384 160.608 17.828 160.356 18.2L158.592 17.552C158.736 17.276 158.886 16.964 159.042 16.616C159.21 16.268 159.36 15.914 159.492 15.554C159.624 15.194 159.726 14.864 159.798 14.564ZM159.888 22.394L162.228 23.114C161.904 23.678 161.58 24.242 161.256 24.806C160.944 25.358 160.644 25.826 160.356 26.21L158.502 25.544C158.682 25.256 158.856 24.932 159.024 24.572C159.192 24.2 159.348 23.828 159.492 23.456C159.648 23.072 159.78 22.718 159.888 22.394ZM146.1 19.208H151.59V20.99H146.1V19.208ZM146.154 14.204H151.536V15.986H146.154V14.204ZM146.1 21.674H151.59V23.456H146.1V21.674ZM145.236 16.652H152.184V18.524H145.236V16.652ZM147.126 24.194H151.608V29.72H147.126V27.848H149.592V26.066H147.126V24.194ZM146.064 24.194H148.062V30.404H146.064V24.194ZM171.624 24.284L171.12 18.362L171.03 15.536H174.27L174.18 18.362L173.676 24.284H171.624ZM172.65 29.198C172.146 29.198 171.732 29.036 171.408 28.712C171.096 28.388 170.94 27.974 170.94 27.47C170.94 26.978 171.102 26.576 171.426 26.264C171.75 25.94 172.158 25.778 172.65 25.778C173.142 25.778 173.55 25.94 173.874 26.264C174.198 26.576 174.36 26.978 174.36 27.47C174.36 27.974 174.198 28.388 173.874 28.712C173.55 29.036 173.142 29.198 172.65 29.198Z" fill="black"/>
</svg>
