<svg width="112" height="124" viewBox="0 0 112 124" fill="none" xmlns="http://www.w3.org/2000/svg">
<g clip-path="url(#clip0_12_3621)">
<path d="M96.9873 78.3462L68.1081 65.1922V65.7615L67.6277 65.5495L66.565 65.0816L60.361 62.3484L55.6637 60.2759L51.2176 62.2453L45.0796 64.9627L44.0275 65.4279L43.7186 65.5649V65.1922L14.8395 78.3462C11.3414 79.8568 9.61426 83.6332 8.76497 87.5584L1.32202 122.634H110.505L103.062 87.5584C102.212 83.6332 100.485 79.8568 96.9873 78.3462Z" fill="#F5D942"/>
<path d="M104.353 87.2789C103.215 82.0152 100.912 78.6015 97.5351 77.1432L68.6559 63.9893C68.2733 63.8152 67.8331 63.8337 67.4688 64.0352L56.1974 59.0665C55.8569 58.9162 55.4688 58.9168 55.1285 59.0673L44.1318 63.9366C43.8198 63.834 43.4768 63.85 43.1707 63.9893L14.3154 77.1327C10.9141 78.6015 8.61195 82.0152 7.47198 87.2839L0.0290679 122.36C-0.122478 123.074 0.333534 123.775 1.04757 123.927C1.76197 124.078 2.46337 123.623 2.61489 122.909L10.0566 87.8379C11.0048 83.4559 12.7903 80.6707 15.3873 79.5489L43.3214 66.8254C43.6244 66.9208 43.9563 66.9053 44.2541 66.7731L55.6648 61.7209L67.5742 66.9704C67.9477 67.1357 68.374 67.1176 68.7299 66.9277L96.4632 79.5595C99.0363 80.6707 100.822 83.4559 101.769 87.8327L109.212 122.909C109.344 123.53 109.892 123.956 110.503 123.956C110.594 123.956 110.686 123.947 110.779 123.927C111.493 123.775 111.949 123.074 111.798 122.36L104.353 87.2789Z" fill="#251E1C"/>
<path d="M67.0351 56.124H44.7784L43.7187 65.1922L31.8696 70.8062C42.315 81.53 69.2898 81.7101 79.5471 70.8062L68.0978 65.1922L67.0351 56.124Z" fill="white"/>
<path d="M80.129 69.6193L69.3267 64.3226L68.3478 55.9701C68.2699 55.3042 67.7056 54.8022 67.0352 54.8022H44.7784C44.1078 54.8022 43.5435 55.3045 43.4656 55.9705L42.4909 64.3112L31.3037 69.6116C30.9181 69.7943 30.6443 70.152 30.5688 70.5719C30.4932 70.9919 30.6251 71.4226 30.9228 71.7282C36.1275 77.0717 45.4302 80.2387 55.8763 80.2383C56.0256 80.2383 56.1766 80.2377 56.3265 80.2364C66.5314 80.1477 75.5719 76.9608 80.5099 71.7116C80.7973 71.406 80.9226 70.982 80.8476 70.5693C80.7723 70.1565 80.5058 69.804 80.129 69.6193ZM56.3035 77.5931C47.4194 77.6669 39.1784 75.2372 34.21 71.1597L44.2845 66.3866C44.6962 66.1916 44.9785 65.7981 45.0314 65.3456L45.9547 57.4456H65.8593L66.7852 65.346C66.8375 65.7921 67.1126 66.1811 67.516 66.3788L77.2613 71.1572C72.5908 75.1395 64.929 77.5181 56.3035 77.5931Z" fill="#251E1C"/>
<path d="M76.8524 32.6979C76.3242 32.5776 75.7864 32.5989 75.2582 32.7446L73.6213 46.5951C73.6446 46.6028 73.6679 46.6086 73.6932 46.6144C76.2155 47.1872 78.9669 44.5348 79.8407 40.6921C80.7125 36.8494 79.3747 33.2707 76.8524 32.6979Z" fill="white"/>
<path d="M77.1462 31.4091C76.4134 31.2421 75.6599 31.2629 74.907 31.4702C74.2033 31.6642 73.7901 32.3919 73.9841 33.0956C74.1779 33.7993 74.906 34.2122 75.6094 34.0186C75.9369 33.928 76.2562 33.9175 76.5597 33.9867C78.306 34.3832 79.237 37.38 78.552 40.3988C77.8668 43.4125 75.7414 45.7098 74.0008 45.3287C73.3188 45.1238 72.5925 45.4981 72.3668 46.179C72.1372 46.8718 72.5126 47.6196 73.2055 47.8494C73.268 47.87 73.3298 47.887 73.4005 47.9032C73.7338 47.9788 74.0678 48.0155 74.4008 48.0155C77.3478 48.0154 80.1847 45.1403 81.1297 40.9845C82.1788 36.3607 80.4286 32.1547 77.1462 31.4091Z" fill="#251E1C"/>
<path d="M35.1401 32.6979C32.6177 33.2707 31.2798 36.8494 32.1517 40.6921C33.0236 44.5348 35.775 47.1872 38.2973 46.6144C38.3497 46.6028 38.4002 46.5891 38.4508 46.5736L36.7342 32.7446C36.2061 32.5989 35.6682 32.5776 35.1401 32.6979Z" fill="white"/>
<path d="M38.063 45.3101C38.0449 45.3155 38.027 45.3206 38.0047 45.3255C36.9653 45.5624 36.0033 44.8204 35.5227 44.3574C34.5596 43.4291 33.8007 41.9865 33.4407 40.3996C32.7556 37.3799 33.6864 34.3833 35.4338 33.9865C35.7362 33.9176 36.0556 33.9283 36.383 34.0186C37.0875 34.2132 37.8144 33.7996 38.0084 33.0956C38.2024 32.392 37.7891 31.6643 37.0854 31.4703C36.3325 31.2627 35.5791 31.2423 34.8473 31.409C31.564 32.1546 29.8138 36.3607 30.8629 40.9844C31.3408 43.0915 32.3444 44.9652 33.6885 46.2607C34.8841 47.4129 36.239 48.0165 37.5869 48.0165C37.9213 48.0163 38.2555 47.9792 38.5865 47.9041C38.6726 47.8847 38.7556 47.8626 38.8385 47.8371C39.5364 47.623 39.9285 46.8836 39.7142 46.1859C39.5001 45.488 38.7603 45.0955 38.063 45.3101Z" fill="#251E1C"/>
<path d="M53.6555 10.5623C33.1935 10.5623 36.7361 32.7329 36.7361 32.7329C36.7341 32.7407 36.6935 33.5221 36.7186 33.9135C37.1317 40.366 37.9547 46.1077 39.3998 49.6329C42.8165 57.9676 49.8623 63.2281 55.9962 63.2281C61.936 63.2281 69.1225 57.8308 72.4753 49.2422C73.5219 45.6346 74.5374 42.1279 75.2738 33.9135C75.3088 33.5228 75.268 33.1329 75.2583 32.7447C75.2564 32.7018 75.2564 32.6612 75.2544 32.6184C75.7035 20.8863 74.1176 10.5623 53.6555 10.5623Z" fill="white"/>
<path d="M72.1066 14.9004C68.4409 11.0919 62.4057 9.24048 53.6556 9.24048C47.5407 9.24048 42.8271 11.1318 39.6456 14.8621C34.0238 21.4535 35.2162 31.44 35.4099 32.8006C35.3843 33.2425 35.3909 33.8616 35.3997 33.9979C35.8711 41.3595 36.8054 46.7885 38.1769 50.1342C41.6563 58.6217 48.984 64.5496 55.9963 64.5496C62.9045 64.5496 70.3527 58.314 73.7065 49.7228C73.7209 49.6859 73.7336 49.6485 73.7447 49.6104C74.7757 46.0563 75.8419 42.3812 76.5904 34.0313C76.6233 33.6636 76.6068 33.3218 76.5923 33.0202C76.5873 32.9171 76.5822 32.8143 76.5797 32.7115C76.5794 32.7025 76.5791 32.6936 76.5788 32.6846L76.577 32.624C76.8245 26.0819 76.4487 19.4119 72.1066 14.9004ZM73.9342 32.6781L73.9372 32.7774C73.9403 32.9006 73.946 33.024 73.9519 33.1475C73.9634 33.3851 73.9742 33.6092 73.9576 33.7955C73.2358 41.8469 72.2583 45.246 71.2228 48.8161C69.705 52.6782 67.3357 56.0028 64.3684 58.4332C61.634 60.6728 58.6608 61.9062 55.9963 61.9062C50.1228 61.9062 43.6572 56.5337 40.6228 49.1316C39.3604 46.052 38.4907 40.9035 38.0377 33.829C38.0215 33.5771 38.045 32.9751 38.0543 32.8269C38.0614 32.7265 38.0571 32.6252 38.0414 32.5257C38.0259 32.4267 36.5406 22.5637 41.665 16.5677C44.3213 13.4597 48.3555 11.8839 53.6556 11.8839C61.6488 11.8839 67.0611 13.4702 70.202 16.7335C73.6644 20.331 74.1979 25.6652 73.9337 32.5676C73.9324 32.6044 73.9325 32.6413 73.9342 32.6781Z" fill="#251E1C"/>
<path d="M16.2944 93.5501C15.5679 93.6196 15.0352 94.2651 15.1047 94.9917L17.7622 122.759C17.8276 123.443 18.4031 123.955 19.0763 123.955C19.1184 123.955 19.1609 123.953 19.2038 123.949C19.9304 123.88 20.463 123.234 20.3935 122.508L17.736 94.7398C17.6664 94.0133 17.0233 93.4801 16.2944 93.5501Z" fill="#251E1C"/>
<path d="M95.5322 93.5501C94.8059 93.4802 94.1601 94.0132 94.0906 94.7398L91.4331 122.508C91.3635 123.234 91.8962 123.88 92.6228 123.949C92.6656 123.953 92.7081 123.955 92.7503 123.955C93.4235 123.955 93.9989 123.443 94.0644 122.759L96.7218 94.9917C96.7914 94.265 96.2587 93.6196 95.5322 93.5501Z" fill="#251E1C"/>
<path d="M77.5892 15.2348C77.5892 15.2348 76.6367 7.25709 70.2068 8.0905C73.6216 4.16118 73.1438 1.68815 73.1438 1.68815C73.1438 1.68815 68.1344 5.76862 64.2292 3.44675C60.3239 1.12487 56.4604 -0.0658183 52.7958 3.98267C47.5874 2.67284 42.9024 3.50535 41.1163 6.95854C38.2945 10.6497 32.8459 8.01254 32.8459 8.01254C32.8459 8.01254 34.5889 12.8059 36.5019 12.8594C33.4139 16.1278 31.7592 19.8382 32.6995 22.9149C35.1681 30.9933 29.7227 33.1904 29.7227 33.1904C29.7227 33.1904 32.9173 33.6831 34.0287 33.1904C35.1401 32.6978 36.7362 32.7328 36.7362 32.7328C36.7362 32.7328 45.7539 27.3765 47.5874 19.4024C49.6992 23.7862 53.4296 26.1478 55.3348 26.7431C54.5008 23.028 55.7085 21.4265 55.7085 21.4265C55.7085 21.4265 58.0642 25.1509 62.1174 26.3085C62.3559 23.7104 63.6579 22.8553 63.6579 22.8553C63.6579 22.8553 70.4272 33.465 75.2585 32.7445C76.8527 32.6978 77.964 33.1904 77.964 33.1904C77.964 33.1904 81.6574 31.121 81.2804 25.1177C84.6144 24.5224 86.3602 22.364 86.3602 22.364C86.3602 22.364 78.9817 23.0938 77.5892 15.2348Z" fill="#F5D942"/>
<path d="M86.23 21.0488C85.9788 21.0745 80.0745 21.5811 78.896 15.0344C78.8294 14.5326 78.1957 10.3584 75.3136 8.11451C74.5452 7.51613 73.6951 7.10762 72.7703 6.89078C74.7975 3.74996 74.4924 1.70107 74.4414 1.43739C74.3533 0.981879 74.0318 0.606676 73.5961 0.447517C73.1599 0.288121 72.6717 0.37033 72.3109 0.66179C72.2678 0.696763 67.9613 4.12749 64.9045 2.31068C61.3109 0.174032 56.6806 -1.68332 52.3651 2.5248C46.6096 1.28391 41.9275 2.67608 40.0031 6.23615C39.1352 7.31465 37.8689 7.74872 36.137 7.56363C34.6548 7.40513 33.4307 6.82716 33.4217 6.8229C32.9377 6.58838 32.3594 6.67112 31.9602 7.0316C31.5609 7.3921 31.4199 7.95861 31.6037 8.46418C31.6231 8.51723 32.0844 9.778 32.8033 11.0617C33.3294 12.001 33.8644 12.7241 34.4146 13.2366C31.6044 16.7057 30.5212 20.3095 31.4354 23.3012C33.4968 30.0468 29.3912 31.8946 29.228 31.9648C28.6762 32.1875 28.3413 32.7514 28.4097 33.3425C28.4781 33.9335 28.9331 34.4061 29.5213 34.4967C30.0107 34.5722 31.1817 34.7313 32.3428 34.7313C33.1726 34.7312 33.9975 34.65 34.5644 34.3987C35.2459 34.0967 36.3409 34.0472 36.7072 34.0542C36.9488 34.0554 37.1983 33.9956 37.4111 33.8691C37.5083 33.8114 39.8198 32.4283 42.3797 30.0207C44.9372 27.6153 46.7942 25.1075 47.9268 22.5356C50.3173 25.8228 53.3961 27.5219 54.9404 28.0046C55.3915 28.1453 55.883 28.0353 56.2302 27.7152C56.5776 27.3953 56.7278 26.9143 56.6243 26.4536C56.4302 25.5886 56.3628 24.866 56.365 24.276C57.5847 25.4956 59.4072 26.909 61.7544 27.5792C62.1329 27.6874 62.5397 27.6214 62.8643 27.3988C63.1889 27.1765 63.3975 26.821 63.4335 26.4292C63.4779 25.9462 63.5642 25.5468 63.6683 25.2202C65.9249 28.3771 70.9846 34.6229 75.3644 34.0639C76.5766 34.042 77.4282 34.3988 77.4283 34.3988C77.809 34.5675 78.2468 34.5471 78.6101 34.3435C78.7801 34.2482 82.5503 32.0637 82.6281 26.1572C85.6852 25.2636 87.3125 23.2882 87.3878 23.1953C87.7228 22.7808 87.7764 22.2057 87.5235 21.7366C87.2703 21.2674 86.7597 20.995 86.23 21.0488ZM81.048 23.8165C80.3867 23.9346 79.9192 24.53 79.9612 25.2005C80.2061 29.0981 78.5468 31.0235 77.7388 31.7216C77.1561 31.5608 76.2765 31.393 75.2198 31.4232C75.1674 31.4248 75.1152 31.4294 75.0634 31.4372C73.597 31.6556 71.2591 30.1157 68.6515 27.2111C66.4491 24.7582 64.7883 22.1699 64.7718 22.1441C64.5816 21.8462 64.2798 21.6369 63.9342 21.5629C63.5887 21.4892 63.2277 21.5564 62.9323 21.7506C62.7826 21.8489 61.7002 22.6141 61.1214 24.5124C58.4363 23.1989 56.8422 20.746 56.8254 20.7199C56.5935 20.3532 56.1963 20.1238 55.7628 20.1059C55.3275 20.087 54.9145 20.2843 54.6531 20.6307C54.5289 20.7953 53.678 22.0168 53.7221 24.4825C52.0386 23.3856 50.0636 21.4972 48.778 18.8287C48.5345 18.3229 47.9974 18.0261 47.4403 18.0888C46.8826 18.1512 46.425 18.559 46.2992 19.106C44.794 25.6523 37.8523 30.4441 36.3484 31.4155C35.7119 31.4369 34.4933 31.5387 33.4935 31.982C33.4012 32.0216 33.2411 32.0497 33.0315 32.0669C34.3741 30.2569 35.4054 27.2476 33.9634 22.5287C33.2213 20.0997 34.4966 16.9062 37.4626 13.767C37.8205 13.3883 37.9316 12.8356 37.732 12.3541C37.5326 11.8728 37.0782 11.5545 36.5572 11.54C36.2668 11.4741 35.797 10.9103 35.3162 10.1199C35.465 10.1437 35.617 10.1648 35.7714 10.1826C38.5033 10.4981 40.7143 9.66055 42.1662 7.76112C42.2132 7.69969 42.2546 7.63424 42.2901 7.56569C43.9309 4.39339 48.626 4.29659 52.4735 5.26436C52.9465 5.38336 53.4479 5.23182 53.7757 4.86951C56.7649 1.5671 59.7334 2.31132 63.5536 4.58286C66.1618 6.1334 69.052 5.41408 71.128 4.4512C70.737 5.22576 70.1349 6.1583 69.2092 7.22353C68.8492 7.63773 68.7826 8.23133 69.0419 8.71496C69.3013 9.19873 69.8329 9.47171 70.3767 9.40124C71.6924 9.23124 72.7731 9.49016 73.6819 10.1941C75.8144 11.8465 76.2728 15.3592 76.2768 15.3915C76.2797 15.4162 76.2834 15.4408 76.2878 15.4653C77.1881 20.5472 80.3207 22.5095 82.8801 23.2546C82.3502 23.4903 81.7384 23.6932 81.048 23.8165Z" fill="#251E1C"/>
<path d="M47.5873 31.6592C41.0186 31.6592 40.4841 34.1404 40.4841 37.138C40.4841 40.2103 43.6042 42.617 47.5873 42.617C51.5705 42.617 54.6907 40.2103 54.6907 37.138C54.6907 34.1404 54.1562 31.6592 47.5873 31.6592ZM47.5873 39.9736C45.1698 39.9736 43.1275 38.675 43.1275 37.138C43.1275 36.1118 43.1447 35.465 43.4817 35.1142C43.8373 34.7439 44.8384 34.3026 47.5873 34.3026C50.3364 34.3026 51.3375 34.7439 51.6931 35.1142C52.0301 35.465 52.0473 36.1118 52.0473 37.138C52.0473 38.675 50.0049 39.9736 47.5873 39.9736Z" fill="#251E1C"/>
<path d="M64.2289 31.6592C57.6602 31.6592 57.1257 34.1404 57.1257 37.138C57.1257 40.2103 60.2458 42.617 64.2289 42.617C68.2121 42.617 71.3323 40.2103 71.3323 37.138C71.3323 34.1404 70.7978 31.6592 64.2289 31.6592ZM64.2289 39.9736C61.8114 39.9736 59.7691 38.675 59.7691 37.138C59.7691 36.1118 59.7863 35.465 60.1233 35.1142C60.4789 34.7439 61.48 34.3026 64.2289 34.3026C66.978 34.3026 67.9791 34.7439 68.3347 35.1142C68.6717 35.465 68.6889 36.1118 68.6889 37.138C68.6889 38.675 66.6465 39.9736 64.2289 39.9736Z" fill="#251E1C"/>
<path d="M58.4916 34.6472H53.3363C52.6065 34.6472 52.0146 35.239 52.0146 35.9689C52.0146 36.6988 52.6065 37.2906 53.3363 37.2906H58.4916C59.2215 37.2906 59.8133 36.6988 59.8133 35.9689C59.8133 35.239 59.2215 34.6472 58.4916 34.6472Z" fill="#251E1C"/>
<path d="M41.8385 34.6472H36.8666C36.1367 34.6472 35.5449 35.239 35.5449 35.9689C35.5449 36.6988 36.1367 37.2906 36.8666 37.2906H41.8385C42.5684 37.2906 43.1602 36.6988 43.1602 35.9689C43.1602 35.239 42.5684 34.6472 41.8385 34.6472Z" fill="#251E1C"/>
<path d="M75.0739 34.6472H70.0107C69.2807 34.6472 68.689 35.239 68.689 35.9689C68.689 36.6988 69.2807 37.2906 70.0107 37.2906H75.0739C75.8038 37.2906 76.3956 36.6988 76.3956 35.9689C76.3956 35.239 75.8038 34.6472 75.0739 34.6472Z" fill="#251E1C"/>
<path d="M50.2537 28.8416C48.7017 28.256 46.6806 28.2548 45.1046 28.8389C44.4202 29.0924 44.0708 29.8527 44.3244 30.5373C44.5219 31.0705 45.0268 31.4003 45.5639 31.4003C45.7163 31.4003 45.8714 31.3737 46.0229 31.3176C47.0047 30.9541 48.3608 30.9527 49.3208 31.3149C50.0036 31.5726 50.7662 31.2276 51.0239 30.5447C51.2815 29.8616 50.9366 29.0992 50.2537 28.8416Z" fill="#251E1C"/>
<path d="M66.8882 28.8388C65.3121 28.2552 63.2913 28.2563 61.7391 28.8415C61.0562 29.0992 60.7113 29.8616 60.9689 30.5446C61.2264 31.2277 61.9885 31.5723 62.6721 31.3148C63.6321 30.9528 64.9883 30.9539 65.97 31.3175C66.1214 31.3737 66.2764 31.4002 66.4289 31.4002C66.966 31.4002 67.4711 31.0704 67.6684 30.5373C67.922 29.8527 67.5726 29.0923 66.8882 28.8388Z" fill="#251E1C"/>
<path d="M59.5638 51.5985C57.3769 50.7965 54.5732 50.7977 52.4214 51.6012C51.7376 51.8565 51.3903 52.6179 51.6456 53.3017C51.901 53.9857 52.6623 54.3332 53.3461 54.0775C54.9171 53.4913 57.05 53.4922 58.6538 54.0803C58.8039 54.1354 58.9575 54.1614 59.1087 54.1614C59.6474 54.1614 60.1535 53.8296 60.3497 53.2943C60.601 52.6091 60.2491 51.8498 59.5638 51.5985Z" fill="#251E1C"/>
<path d="M47.6755 34.5461C46.6409 34.5461 45.8022 35.3849 45.8022 36.4194C45.8022 37.454 46.6409 38.2927 47.6755 38.2927C48.7101 38.2927 49.5488 37.454 49.5488 36.4194C49.5488 35.3849 48.7101 34.5461 47.6755 34.5461Z" fill="#251E1C"/>
<path d="M64.3171 34.5461C63.2826 34.5461 62.4438 35.3849 62.4438 36.4194C62.4438 37.454 63.2826 38.2927 64.3171 38.2927C65.3517 38.2927 66.1904 37.454 66.1904 36.4194C66.1904 35.3849 65.3517 34.5461 64.3171 34.5461Z" fill="#251E1C"/>
<path d="M64.0009 70.7164L60.1614 64.2134L64.0009 70.7164Z" fill="white"/>
<path d="M69.2359 74.009C68.4396 71.4163 67.1983 68.9566 66.8306 68.2861C64.268 63.6125 65.6732 61.9294 63.8933 60.9034C61.7152 59.6478 60.8411 61.4307 60.1613 64.2134L59.353 62.8444L58.3752 61.1984C58.3752 61.1984 57.3598 59.8124 55.9717 60.4372C54.3206 61.1806 54.7707 62.9566 54.7707 62.9566L57.0333 67.4501L54.7136 62.9878L54.057 61.7905C53.8368 61.3865 53.4421 61.1476 53.0194 60.9637C52.3178 60.6585 51.4522 60.8355 50.9056 61.2692C50.2255 61.8342 49.7339 62.8447 50.5829 64.3913C50.5829 64.3913 49.5795 62.6916 47.8947 63.6643C46.8427 64.2717 46.6607 65.4558 47.5454 67.1716C47.6727 67.5145 48.0219 68.2346 48.4073 68.9983L49.7784 71.6389C49.7784 71.6389 49.0434 70.259 48.4073 68.9983L48.1223 68.4495C48.1223 68.4495 46.9651 67.9062 45.92 68.5935C44.8732 69.2803 44.542 70.5609 45.1373 72.1209C45.4532 72.9489 50.454 83.2633 51.7841 84.4237C53.1611 86.0586 58.3245 89.7234 59.62 91.9218L65.1489 103.422L76.8644 96.595L68.5235 84.1435C68.5235 84.1435 69.8022 75.8532 69.2359 74.009Z" fill="white"/>
<path d="M48.4075 68.9983C49.0436 70.259 49.7785 71.6389 49.7785 71.6389L48.4075 68.9983Z" fill="white"/>
<path d="M69.9072 83.8341C70.273 81.376 71.0633 75.4569 70.4995 73.6209C69.73 71.1158 68.5212 68.6202 67.9896 67.6506C66.7837 65.4514 66.5375 63.9903 66.3577 62.9236C66.1627 61.7663 65.9611 60.5697 64.5535 59.7582C63.4581 59.1269 62.4424 59.0033 61.5356 59.3915C60.7933 59.709 60.2575 60.3207 59.8481 61.0899L59.5116 60.5233C59.4899 60.4868 59.4664 60.4514 59.4414 60.4172C58.8714 59.6392 57.2989 58.39 55.4293 59.2321C54.9128 59.4646 54.5179 59.7672 54.2198 60.1063C53.9824 59.9523 53.7475 59.8391 53.5467 59.7517C52.4442 59.272 51.0528 59.4656 50.0842 60.2337C50.0765 60.2399 50.0687 60.2462 50.0611 60.2526C49.4631 60.7492 49.0771 61.3589 48.9088 62.0367C48.3882 62.0379 47.824 62.179 47.2339 62.5197C46.6338 62.8661 44.8898 64.1688 46.051 67.0799C45.7692 67.1687 45.481 67.3003 45.195 67.4884C43.5967 68.5373 43.1015 70.4928 43.9026 72.592C44.0692 73.0287 49.0518 83.5664 50.8219 85.332C51.4469 86.055 52.566 87.0045 53.8566 88.0995C55.5959 89.5752 57.7552 91.4074 58.4553 92.5496L63.9577 103.995C64.1853 104.468 64.6577 104.744 65.1498 104.744C65.3419 104.744 65.5371 104.702 65.7216 104.613C66.3795 104.297 66.6564 103.507 66.3401 102.849L60.8112 91.3492C60.7951 91.3158 60.7777 91.2829 60.7587 91.251C59.861 89.7274 57.678 87.8751 55.5668 86.0838C54.3841 85.0804 53.267 84.1325 52.7951 83.5723C52.7516 83.5206 52.7081 83.4758 52.6571 83.4314C51.5999 82.4392 46.8169 72.8032 46.3722 71.6496C46.1256 71.0031 45.9726 70.1398 46.6464 69.6976C46.8325 69.5753 47.0435 69.5555 47.2147 69.5695L47.2287 69.5963C47.8256 70.7809 48.4938 72.0385 48.6119 72.2601C48.9538 72.9018 49.7496 73.1473 50.3937 72.8085C51.0373 72.47 51.2865 71.6751 50.9514 71.0297L49.5825 68.3932C49.2025 67.6401 48.8874 66.9888 48.7843 66.7113C48.7658 66.6616 48.7444 66.6131 48.7202 66.566C48.2319 65.6188 48.1765 65.0278 48.5556 64.8089C48.7135 64.7178 49.0822 64.5051 49.4395 65.0549L52.1692 70.0503C52.5193 70.6909 53.3222 70.9264 53.9628 70.5764C54.402 70.3364 54.6508 69.8835 54.651 69.416C54.6511 69.2016 54.599 68.9841 54.4889 68.7828L51.7416 63.7553C51.2045 62.7771 51.5494 62.4537 51.7355 62.2981C51.9195 62.158 52.2635 62.0763 52.4922 62.1757C52.8356 62.3252 52.8915 62.4136 52.8982 62.426L53.5476 63.6103L55.8607 68.0597C56.1886 68.6904 56.9538 68.9462 57.5914 68.6483C57.5918 68.6482 57.5922 68.6479 57.5926 68.6478C57.6069 68.6411 57.6213 68.634 57.6354 68.6267C57.7543 68.5659 57.8599 68.4897 57.9513 68.4016C57.9519 68.4011 57.9523 68.4007 57.9527 68.4002C58.1076 68.2505 58.221 68.0671 58.2874 67.8679C58.2875 67.8674 58.2877 67.8669 58.2879 67.8662C58.288 67.8661 58.288 67.866 58.288 67.8658C58.2881 67.8655 58.2883 67.8651 58.2885 67.8646C58.2885 67.8643 58.2886 67.864 58.2886 67.8639C58.2888 67.8635 58.2889 67.8631 58.289 67.8629C58.2892 67.8625 58.2893 67.8622 58.2893 67.8618C58.2894 67.8616 58.2896 67.8613 58.2897 67.8609C58.2898 67.8607 58.2898 67.8603 58.2899 67.8599C58.2901 67.8596 58.2901 67.8595 58.2902 67.8593C58.2903 67.8587 58.2905 67.8584 58.2907 67.8579V67.8576C58.3412 67.7018 58.363 67.5367 58.3531 67.371V67.3706C58.3531 67.3702 58.3531 67.3696 58.3529 67.3692V67.3684C58.3529 67.368 58.3529 67.3678 58.3528 67.3674V67.3654C58.3527 67.3649 58.3527 67.3644 58.3527 67.3638C58.3415 67.1919 58.2963 67.0193 58.214 66.856C58.214 66.8559 58.2139 66.8557 58.2139 66.8557L56.037 62.5322C56.0034 62.2507 56.0515 61.8509 56.5143 61.6424C56.8517 61.4909 57.1884 61.8392 57.2843 61.9497L59.0175 64.8756C59.0195 64.8789 59.0213 64.8821 59.0232 64.8853L62.8627 71.3883C63.2337 72.0167 64.0438 72.2254 64.6728 71.8546C65.3014 71.4835 65.5101 70.673 65.139 70.0444L61.5775 64.0123C62.0766 62.1707 62.4621 61.8703 62.575 61.8219C62.615 61.805 62.8202 61.8102 63.2334 62.0483C63.5148 62.2106 63.5666 62.2686 63.7511 63.3628C63.9503 64.5447 64.2513 66.3309 65.6717 68.9214C65.6857 68.9471 67.0893 71.5213 67.9725 74.397C68.2672 75.3563 67.8099 80.0985 67.2173 83.942C67.1669 84.2694 67.2411 84.6039 67.4254 84.8791L75.7663 97.3306C76.1727 97.9373 76.9939 98.0993 77.6 97.6932C78.2065 97.2869 78.3687 96.466 77.9626 95.8595L69.9072 83.8341Z" fill="#251E1C"/>
<path d="M69.2429 117.382L71.9081 122.633H96.1711L91.3805 114.601L69.2429 117.382Z" fill="#F5D942"/>
<path d="M92.5156 113.924C92.2469 113.474 91.7367 113.225 91.2159 113.29L69.0784 116.07C68.6515 116.124 68.2775 116.382 68.0758 116.762C67.874 117.142 67.8698 117.596 68.0645 117.98L70.7296 123.231C70.9548 123.675 71.4103 123.955 71.9081 123.955H96.1712C96.6467 123.955 97.0857 123.699 97.3205 123.286C97.5553 122.872 97.5499 122.364 97.3062 121.956L92.5156 113.924ZM72.7195 121.311L71.272 118.459L90.6881 116.02L93.8439 121.311H72.7195Z" fill="#F5D942"/>
<path d="M60.9717 104.181L71.9084 122.633H96.1714L78.9739 93.8013L60.9717 104.181Z" fill="#F5D942"/>
<path d="M80.1088 93.1242C79.739 92.504 78.9391 92.2957 78.3135 92.6563L60.3114 103.036C60.0053 103.213 59.7827 103.504 59.6931 103.846C59.6036 104.188 59.6544 104.551 59.8346 104.855L70.7712 123.307C71.0181 123.724 71.458 123.955 71.9095 123.955C72.1386 123.955 72.3708 123.895 72.5821 123.77C73.21 123.398 73.4175 122.587 73.0452 121.959L62.7906 104.658L78.5057 95.5968L95.0362 123.31C95.4099 123.937 96.221 124.142 96.8484 123.768C97.4753 123.394 97.6802 122.583 97.3063 121.956L80.1088 93.1242Z" fill="#251E1C"/>
</g>
<defs>
<clipPath id="clip0_12_3621">
<rect width="111.827" height="123.956" fill="white"/>
</clipPath>
</defs>
</svg>
